<svg width="138" height="54" viewBox="0 0 138 54" fill="none" xmlns="http://www.w3.org/2000/svg">
<path d="M31.2083 32.32C29.3949 32.32 27.8376 32.0107 26.5363 31.392C25.2563 30.7733 24.0936 29.8453 23.0483 28.608L25.9283 25.728C26.5896 26.6027 27.3576 27.2853 28.2323 27.776C29.1069 28.2453 30.1736 28.48 31.4323 28.48C32.5629 28.48 33.4589 28.256 34.1203 27.808C34.8029 27.36 35.1443 26.7413 35.1443 25.952C35.1443 25.2693 34.9523 24.7147 34.5683 24.288C34.1843 23.8613 33.6723 23.4987 33.0323 23.2C32.4136 22.9013 31.7203 22.6347 30.9523 22.4C30.2056 22.144 29.4483 21.856 28.6803 21.536C27.9336 21.216 27.2403 20.8213 26.6003 20.352C25.9816 19.8613 25.4803 19.2427 25.0963 18.496C24.7123 17.728 24.5203 16.768 24.5203 15.616C24.5203 14.2507 24.8509 13.088 25.5123 12.128C26.1736 11.168 27.0803 10.432 28.2323 9.92C29.3843 9.408 30.6856 9.152 32.1363 9.152C33.6723 9.152 35.0589 9.44 36.2963 10.016C37.5336 10.592 38.5469 11.3387 39.3363 12.256L36.4563 15.136C35.7949 14.4107 35.1123 13.8773 34.4083 13.536C33.7256 13.1947 32.9469 13.024 32.0723 13.024C31.0696 13.024 30.2803 13.216 29.7043 13.6C29.1283 13.984 28.8403 14.5387 28.8403 15.264C28.8403 15.8827 29.0323 16.384 29.4163 16.768C29.8003 17.152 30.3016 17.4827 30.9203 17.76C31.5603 18.0373 32.2536 18.304 33.0003 18.56C33.7683 18.816 34.5256 19.104 35.2723 19.424C36.0403 19.744 36.7336 20.16 37.3523 20.672C37.9923 21.184 38.5043 21.8453 38.8883 22.656C39.2723 23.4453 39.4643 24.4267 39.4643 25.6C39.4643 27.6907 38.7283 29.3333 37.2563 30.528C35.7843 31.7227 33.7683 32.32 31.2083 32.32ZM47.83 32.32C46.422 32.32 45.1527 31.968 44.022 31.264C42.8913 30.56 42.006 29.6 41.366 28.384C40.726 27.168 40.406 25.8027 40.406 24.288C40.406 22.752 40.726 21.376 41.366 20.16C42.006 18.944 42.8913 17.984 44.022 17.28C45.1527 16.576 46.422 16.224 47.83 16.224C48.9393 16.224 49.9313 16.448 50.806 16.896C51.6807 17.344 52.374 17.9733 52.886 18.784C53.4193 19.5733 53.7073 20.4693 53.75 21.472V27.04C53.7073 28.064 53.4193 28.9707 52.886 29.76C52.374 30.5493 51.6807 31.1787 50.806 31.648C49.9313 32.096 48.9393 32.32 47.83 32.32ZM48.598 28.448C49.7713 28.448 50.7207 28.064 51.446 27.296C52.1713 26.5067 52.534 25.4933 52.534 24.256C52.534 23.4453 52.3633 22.7307 52.022 22.112C51.702 21.472 51.2433 20.9813 50.646 20.64C50.07 20.2773 49.3873 20.096 48.598 20.096C47.83 20.096 47.1473 20.2773 46.55 20.64C45.974 20.9813 45.5153 21.472 45.174 22.112C44.854 22.7307 44.694 23.4453 44.694 24.256C44.694 25.088 44.854 25.824 45.174 26.464C45.5153 27.0827 45.974 27.5733 46.55 27.936C47.1473 28.2773 47.83 28.448 48.598 28.448ZM52.31 32V27.84L52.982 24.064L52.31 20.352V16.544H56.47V32H52.31ZM64.2425 32L57.4265 16.544H62.0345L66.9305 29.28H64.6585L69.5865 16.544H74.0345L67.2505 32H64.2425ZM81.9317 32.32C80.3104 32.32 78.8704 31.9787 77.6117 31.296C76.3531 30.592 75.3504 29.632 74.6037 28.416C73.8784 27.2 73.5157 25.8133 73.5157 24.256C73.5157 22.72 73.8677 21.3547 74.5717 20.16C75.2971 18.944 76.2784 17.984 77.5157 17.28C78.7531 16.5547 80.1291 16.192 81.6437 16.192C83.1371 16.192 84.4491 16.5333 85.5797 17.216C86.7317 17.8773 87.6277 18.7947 88.2677 19.968C88.9291 21.12 89.2597 22.432 89.2597 23.904C89.2597 24.1813 89.2384 24.4693 89.1957 24.768C89.1744 25.0453 89.1211 25.3653 89.0357 25.728L76.0437 25.76V22.624L87.0837 22.592L85.3877 23.904C85.3451 22.9867 85.1744 22.2187 84.8757 21.6C84.5984 20.9813 84.1824 20.512 83.6277 20.192C83.0944 19.8507 82.4331 19.68 81.6437 19.68C80.8117 19.68 80.0864 19.872 79.4677 20.256C78.8491 20.6187 78.3691 21.1413 78.0277 21.824C77.7077 22.4853 77.5477 23.2747 77.5477 24.192C77.5477 25.1307 77.7184 25.952 78.0597 26.656C78.4224 27.3387 78.9344 27.872 79.5957 28.256C80.2571 28.6187 81.0251 28.8 81.8997 28.8C82.6891 28.8 83.4037 28.672 84.0437 28.416C84.6837 28.1387 85.2384 27.7333 85.7077 27.2L88.1717 29.664C87.4251 30.5387 86.5077 31.2 85.4197 31.648C84.3531 32.096 83.1904 32.32 81.9317 32.32Z" fill="#212529"/>
<path d="M91.8523 32V9.984H94.1883V32H91.8523ZM104.333 32V10.592H106.701V32H104.333ZM96.589 12.128V9.984H114.445V12.128H96.589Z" fill="#2F80ED"/>
<path d="M23.4863 46.8672H24.6201V47.5527H23.4863V49.5215H22.6426V44.8721H23.4863V46.8672ZM20.9375 49.6709C21.4736 49.6709 21.9365 49.731 22.3262 49.8511C22.7188 49.9712 23.0205 50.147 23.2314 50.3784C23.4424 50.6069 23.5479 50.8809 23.5479 51.2002C23.5479 51.5195 23.4424 51.7935 23.2314 52.022C23.0205 52.2534 22.7188 52.4292 22.3262 52.5493C21.9336 52.6724 21.4707 52.7324 20.9375 52.7295C20.3984 52.7324 19.9297 52.6724 19.5312 52.5493C19.1328 52.4292 18.8267 52.2534 18.6128 52.022C18.3989 51.7935 18.292 51.5195 18.292 51.2002C18.292 50.8809 18.3989 50.6069 18.6128 50.3784C18.8267 50.147 19.1313 49.9712 19.5269 49.8511C19.9253 49.731 20.3955 49.6709 20.9375 49.6709ZM20.9375 50.3477C20.5596 50.3447 20.2329 50.377 19.9575 50.4443C19.6851 50.5088 19.4756 50.6055 19.3291 50.7344C19.1855 50.8633 19.1152 51.0186 19.1182 51.2002C19.1152 51.3789 19.1855 51.5342 19.3291 51.666C19.4756 51.7949 19.6851 51.8931 19.9575 51.9604C20.23 52.0278 20.5566 52.0615 20.9375 52.0615C21.3096 52.0615 21.6304 52.0278 21.8999 51.9604C22.1694 51.8931 22.3774 51.7949 22.5239 51.666C22.6704 51.5342 22.7451 51.3789 22.748 51.2002C22.7451 51.0215 22.6704 50.8677 22.5239 50.7388C22.3774 50.6069 22.168 50.5088 21.8955 50.4443C21.626 50.377 21.3066 50.3447 20.9375 50.3477ZM21.1396 46.1289H18.4502V48.2734C19.2588 48.2705 19.9106 48.2515 20.4058 48.2163C20.9009 48.1812 21.3887 48.1152 21.8691 48.0186L21.9482 48.6953C21.4473 48.8008 20.9346 48.8696 20.4102 48.9019C19.8857 48.9341 19.165 48.9502 18.248 48.9502H17.624V45.4521H21.1396V46.1289ZM31.6886 50.6465H30.8537V44.8809H31.6886V50.6465ZM31.9259 52.5801H26.5382V50.1016H27.382V51.9033H31.9259V52.5801ZM28.0236 46.0938C28.0207 46.4775 28.0968 46.8438 28.2521 47.1924C28.4103 47.541 28.6359 47.8486 28.9289 48.1152C29.2218 48.3818 29.5675 48.584 29.966 48.7217L29.5353 49.3896C29.0841 49.2227 28.693 48.9795 28.362 48.6602C28.0338 48.3379 27.7804 47.96 27.6017 47.5264C27.4259 47.9893 27.1696 48.395 26.8327 48.7437C26.4987 49.0923 26.1046 49.3545 25.6505 49.5303L25.2023 48.8711C25.6066 48.7217 25.9567 48.5049 26.2526 48.2207C26.5514 47.9365 26.7785 47.6099 26.9338 47.2407C27.092 46.8716 27.1711 46.4893 27.1711 46.0938V45.3115H28.0236V46.0938ZM35.5931 45.4346C36.0032 45.4316 36.3709 45.5093 36.6961 45.6675C37.0213 45.8257 37.2747 46.0483 37.4564 46.3354C37.6409 46.6196 37.7347 46.9434 37.7376 47.3066C37.7347 47.6699 37.6409 47.9951 37.4564 48.2822C37.2747 48.5664 37.0213 48.7891 36.6961 48.9502C36.3709 49.1084 36.0032 49.1875 35.5931 49.1875C35.1829 49.1875 34.8138 49.1084 34.4857 48.9502C34.1605 48.7891 33.9056 48.5664 33.721 48.2822C33.5364 47.9951 33.4456 47.6699 33.4486 47.3066C33.4456 46.9434 33.5364 46.6196 33.721 46.3354C33.9056 46.0483 34.1605 45.8257 34.4857 45.6675C34.8138 45.5093 35.1829 45.4316 35.5931 45.4346ZM35.5931 46.1553C35.3382 46.1553 35.1097 46.2036 34.9075 46.3003C34.7083 46.394 34.5516 46.5288 34.4373 46.7046C34.326 46.8774 34.2718 47.0781 34.2747 47.3066C34.2718 47.5352 34.326 47.7373 34.4373 47.9131C34.5516 48.0859 34.7083 48.2207 34.9075 48.3174C35.1097 48.4111 35.3382 48.458 35.5931 48.458C35.848 48.458 36.075 48.4111 36.2742 48.3174C36.4764 48.2207 36.6346 48.0859 36.7488 47.9131C36.8631 47.7373 36.9202 47.5352 36.9202 47.3066C36.9202 47.0781 36.8631 46.8774 36.7488 46.7046C36.6346 46.5288 36.4764 46.394 36.2742 46.3003C36.075 46.2036 35.848 46.1553 35.5931 46.1553ZM39.5394 52.7646H38.7044V44.8721H39.5394V52.7646ZM33.0706 50.374C34.0433 50.374 34.9515 50.3579 35.7952 50.3257C36.6419 50.2905 37.4476 50.2188 38.2122 50.1104L38.2738 50.7168C37.4886 50.8691 36.6903 50.9658 35.8787 51.0068C35.0701 51.0479 34.1693 51.0684 33.1761 51.0684L33.0706 50.374ZM49.7565 52.7646H48.9215V48.3877H47.2955V47.7021H48.9215V44.8721H49.7565V52.7646ZM45.9948 47.0869C45.9948 47.5293 46.0812 47.9717 46.254 48.4141C46.4269 48.8564 46.6686 49.2534 46.9791 49.605C47.2926 49.9536 47.6471 50.2158 48.0426 50.3916L47.5416 51.0596C47.0934 50.8428 46.6979 50.5205 46.3551 50.0928C46.0153 49.6621 45.7575 49.1743 45.5817 48.6294C45.403 49.2095 45.1408 49.7295 44.7951 50.1895C44.4494 50.6465 44.0524 50.9893 43.6041 51.2178L43.0944 50.5674C43.487 50.3799 43.8385 50.103 44.1491 49.7368C44.4625 49.3677 44.7072 48.9517 44.8829 48.4888C45.0587 48.0229 45.1481 47.5557 45.151 47.0869V46.3486H43.4108V45.6631H47.7438V46.3486H45.9948V47.0869ZM58.2313 49.4775H55.0496V50.3037H57.3523V52.7295H56.5086V50.9805H51.8504V50.3037H54.2234V49.4775H51.0506V48.8096H58.2313V49.4775ZM55.0496 45.6279H57.5105V46.2871H55.0979C55.1243 46.5449 55.2547 46.7793 55.4891 46.9902C55.7264 47.1982 56.0457 47.3726 56.4471 47.5132C56.8514 47.6509 57.3143 47.7432 57.8357 47.79L57.5721 48.4141C56.8807 48.3525 56.2771 48.209 55.7615 47.9834C55.2488 47.7549 54.8738 47.459 54.6365 47.0957C54.3963 47.459 54.0184 47.7549 53.5027 47.9834C52.99 48.209 52.3895 48.3525 51.701 48.4141L51.4373 47.79C51.9559 47.7432 52.4158 47.6509 52.8172 47.5132C53.2215 47.3726 53.5408 47.1982 53.7752 46.9902C54.0125 46.7793 54.1458 46.5449 54.1751 46.2871H51.7713V45.6279H54.2234V44.8457H55.0496V45.6279ZM62.5048 45.0039C63.0966 45.0039 63.602 45.0566 64.021 45.1621C64.4428 45.2646 64.7636 45.417 64.9834 45.6191C65.206 45.8213 65.3173 46.0674 65.3173 46.3574C65.3173 46.6475 65.206 46.895 64.9834 47.1001C64.7636 47.3022 64.4428 47.4561 64.021 47.5615C63.602 47.667 63.0966 47.7197 62.5048 47.7197C61.913 47.7197 61.4062 47.667 60.9843 47.5615C60.5654 47.4561 60.2446 47.3022 60.0219 47.1001C59.8022 46.895 59.6923 46.6475 59.6923 46.3574C59.6923 46.0674 59.8022 45.8213 60.0219 45.6191C60.2446 45.417 60.5654 45.2646 60.9843 45.1621C61.4062 45.0566 61.913 45.0039 62.5048 45.0039ZM62.5048 45.6191C61.8779 45.6191 61.396 45.6836 61.059 45.8125C60.7221 45.9414 60.5566 46.123 60.5625 46.3574C60.5595 46.5977 60.7236 46.7808 61.0546 46.9067C61.3886 47.0327 61.872 47.0957 62.5048 47.0957C63.1347 47.0957 63.6167 47.0327 63.9506 46.9067C64.2876 46.7808 64.456 46.5977 64.456 46.3574C64.456 46.123 64.2861 45.9414 63.9463 45.8125C63.6093 45.6836 63.1289 45.6191 62.5048 45.6191ZM66.0996 48.8711H58.9189V48.2031H66.0996V48.8711ZM65.1943 51.3232H60.6064V52.0264H65.414V52.668H59.789V50.7168H64.3681V50.1016H59.7802V49.4775H65.1943V51.3232ZM71.6585 45.2324C72.0511 45.2324 72.4026 45.3013 72.7132 45.439C73.0237 45.5767 73.2669 45.77 73.4427 46.019C73.6184 46.2651 73.7063 46.5479 73.7063 46.8672C73.7063 47.1836 73.6184 47.4663 73.4427 47.7153C73.2669 47.9644 73.0237 48.1577 72.7132 48.2954C72.4026 48.4302 72.0511 48.4961 71.6585 48.4932C71.2659 48.4961 70.9158 48.4302 70.6082 48.2954C70.3006 48.1577 70.0603 47.9658 69.8875 47.7197C69.7146 47.4707 69.6282 47.1865 69.6282 46.8672C69.6282 46.5479 69.7146 46.2637 69.8875 46.0146C70.0603 45.7656 70.3006 45.5737 70.6082 45.439C70.9158 45.3013 71.2659 45.2324 71.6585 45.2324ZM71.6585 45.9092C71.4212 45.9092 71.2088 45.9487 71.0213 46.0278C70.8367 46.1069 70.6917 46.2197 70.5862 46.3662C70.4837 46.5098 70.4339 46.6768 70.4368 46.8672C70.4339 47.0547 70.4837 47.2202 70.5862 47.3638C70.6917 47.5073 70.8382 47.6187 71.0257 47.6978C71.2132 47.7739 71.4241 47.8105 71.6585 47.8076C71.8987 47.8105 72.114 47.7739 72.3045 47.6978C72.4949 47.6187 72.6429 47.5073 72.7483 47.3638C72.8538 47.2202 72.9065 47.0547 72.9065 46.8672C72.9065 46.6768 72.8538 46.5098 72.7483 46.3662C72.6429 46.2197 72.4949 46.1069 72.3045 46.0278C72.117 45.9487 71.9016 45.9092 71.6585 45.9092ZM75.6223 52.7471H74.7962V44.8809H75.6223V52.7471ZM69.0657 49.1084C69.9973 49.1084 70.9012 49.0894 71.7771 49.0513C72.656 49.0103 73.4807 48.9326 74.2513 48.8184L74.3128 49.4424C73.6682 49.5654 72.9388 49.6562 72.1243 49.7148V52.501H71.2893V49.7588C70.7913 49.7822 70.0882 49.7969 69.18 49.8027L69.0657 49.1084ZM83.1303 47.4121H84.2729V48.1064H83.1303V50.7695H82.2954V44.8809H83.1303V47.4121ZM81.645 46.4717H76.9516V45.7949H78.8852V44.8721H79.7202V45.7949H81.645V46.4717ZM79.2983 46.8496C79.6733 46.8496 80.0043 46.9111 80.2914 47.0342C80.5815 47.1572 80.8056 47.3315 80.9638 47.5571C81.1249 47.7798 81.2055 48.0391 81.2055 48.335C81.2055 48.6309 81.1249 48.8901 80.9638 49.1128C80.8056 49.3354 80.5815 49.5083 80.2914 49.6313C80.0043 49.7515 79.6733 49.8115 79.2983 49.8115C78.9204 49.8115 78.5864 49.7515 78.2963 49.6313C78.0063 49.5083 77.7807 49.3354 77.6196 49.1128C77.4614 48.8901 77.3823 48.6309 77.3823 48.335C77.3823 48.0391 77.4614 47.7798 77.6196 47.5571C77.7807 47.3315 78.0063 47.1572 78.2963 47.0342C78.5864 46.9111 78.9204 46.8496 79.2983 46.8496ZM79.2983 47.4912C79.0756 47.4912 78.8793 47.5264 78.7094 47.5967C78.5424 47.6641 78.4135 47.7622 78.3227 47.8911C78.2319 48.0171 78.1879 48.165 78.1909 48.335C78.1879 48.502 78.2319 48.6484 78.3227 48.7744C78.4135 48.8975 78.5424 48.9927 78.7094 49.0601C78.8793 49.1274 79.0756 49.1611 79.2983 49.1611C79.5209 49.1611 79.7158 49.1274 79.8828 49.0601C80.0527 48.9927 80.1845 48.8975 80.2783 48.7744C80.372 48.6484 80.4204 48.502 80.4233 48.335C80.4204 48.165 80.372 48.0171 80.2783 47.8911C80.1845 47.7622 80.0527 47.6641 79.8828 47.5967C79.7158 47.5264 79.5209 47.4912 79.2983 47.4912ZM83.4643 52.5801H78.1381V50.3037H78.9731V51.9033H83.4643V52.5801ZM89.8494 46.2871C89.8494 46.624 89.9241 46.9478 90.0735 47.2583C90.2258 47.5688 90.4441 47.8457 90.7283 48.0889C91.0154 48.332 91.3552 48.5195 91.7478 48.6514L91.3259 49.3018C90.8865 49.1494 90.5042 48.9268 90.179 48.6338C89.8567 48.3408 89.6091 47.9995 89.4363 47.6099C89.2634 48.0376 89.0086 48.4111 88.6716 48.7305C88.3377 49.0498 87.9421 49.29 87.4851 49.4512L87.0369 48.8008C87.4412 48.6631 87.7913 48.4653 88.0872 48.2075C88.3831 47.9497 88.6101 47.6553 88.7683 47.3242C88.9295 46.9902 89.0115 46.6416 89.0144 46.2783V46.0674H87.283V45.3906H91.5457V46.0674H89.8494V46.2871ZM93.2859 46.8936H94.4285V47.5967H93.2859V49.6182H92.4509V44.8721H93.2859V46.8936ZM93.2859 52.7471H92.4509V50.6816H88.0828V50.0049H93.2859V52.7471ZM102.147 49.6533H94.9667V48.9854H102.147V49.6533ZM101.339 52.5801H95.872V50.2949H96.7157V51.9033H101.339V52.5801ZM98.5527 45.1357C99.1181 45.1328 99.6117 45.1943 100.034 45.3203C100.458 45.4463 100.787 45.6279 101.018 45.8652C101.249 46.1025 101.365 46.3838 101.365 46.709C101.365 47.0371 101.249 47.3213 101.018 47.5615C100.789 47.7988 100.463 47.9819 100.038 48.1108C99.6132 48.2397 99.1181 48.3057 98.5527 48.3086C97.9843 48.3057 97.4877 48.2397 97.0629 48.1108C96.641 47.9819 96.3144 47.7988 96.0829 47.5615C95.8544 47.3213 95.7402 47.0371 95.7402 46.709C95.7402 46.3838 95.8544 46.1025 96.0829 45.8652C96.3144 45.6279 96.641 45.4463 97.0629 45.3203C97.4877 45.1943 97.9843 45.1328 98.5527 45.1357ZM98.5527 45.8037C98.1542 45.8037 97.8071 45.8403 97.5112 45.9136C97.2182 45.9868 96.9926 46.0923 96.8344 46.23C96.6762 46.3647 96.5986 46.5244 96.6015 46.709C96.5986 46.8994 96.6747 47.0635 96.83 47.2012C96.9882 47.3389 97.2138 47.4443 97.5068 47.5176C97.8027 47.5879 98.1513 47.623 98.5527 47.623C98.954 47.623 99.3012 47.5879 99.5942 47.5176C99.8871 47.4443 100.111 47.3389 100.267 47.2012C100.425 47.0635 100.504 46.8994 100.504 46.709C100.504 46.5244 100.425 46.3647 100.267 46.23C100.108 46.0923 99.8827 45.9868 99.5898 45.9136C99.2968 45.8403 98.9511 45.8037 98.5527 45.8037ZM106.836 50.4268H110.536V49.5918H111.371V52.6504H106.01V49.5918H106.836V50.4268ZM110.536 51.9824V51.0771H106.836V51.9824H110.536ZM112.303 49.0996H105.122V48.4053H112.303V49.0996ZM109.139 45.2939C109.139 45.5898 109.263 45.8784 109.512 46.1597C109.764 46.438 110.101 46.6768 110.523 46.876C110.948 47.0723 111.409 47.2012 111.907 47.2627L111.609 47.9219C110.964 47.8311 110.383 47.6421 109.864 47.355C109.348 47.0679 108.965 46.7178 108.713 46.3047C108.461 46.7207 108.075 47.0723 107.557 47.3594C107.041 47.6436 106.464 47.8311 105.825 47.9219L105.509 47.2627C106.013 47.1982 106.477 47.0693 106.902 46.876C107.327 46.6826 107.664 46.4468 107.913 46.1685C108.162 45.8901 108.286 45.5986 108.286 45.2939V44.96H109.139V45.2939ZM117.376 45.9092V46.0146C117.371 46.4102 117.356 46.7749 117.332 47.1089C117.309 47.4429 117.256 47.8193 117.174 48.2383L116.348 48.1592C116.424 47.7666 116.475 47.415 116.502 47.1045C116.531 46.791 116.549 46.4746 116.555 46.1553H113.404V45.4697H117.376V45.9092ZM115.364 48.8667C116.322 48.8315 117.157 48.7627 117.869 48.6602L117.921 49.2666C117.195 49.3955 116.433 49.4805 115.636 49.5215C114.839 49.5625 113.963 49.5859 113.008 49.5918L112.929 48.915H113.026L114.537 48.8931V47.2363H115.364V48.8667ZM119.222 47.377H120.303V48.0801H119.222V50.7871H118.37V44.8721H119.222V47.377ZM119.477 52.5801H114.124V50.251H114.959V51.9033H119.477V52.5801Z" fill="#666666"/>
</svg>
