<svg width="138" height="56" viewBox="0 0 138 56" fill="none" xmlns="http://www.w3.org/2000/svg">
<path d="M31.2083 32.32C29.3949 32.32 27.8376 32.0107 26.5363 31.392C25.2563 30.7733 24.0936 29.8453 23.0483 28.608L25.9283 25.728C26.5896 26.6027 27.3576 27.2853 28.2323 27.776C29.1069 28.2453 30.1736 28.48 31.4323 28.48C32.5629 28.48 33.4589 28.256 34.1203 27.808C34.8029 27.36 35.1443 26.7413 35.1443 25.952C35.1443 25.2693 34.9523 24.7147 34.5683 24.288C34.1843 23.8613 33.6723 23.4987 33.0323 23.2C32.4136 22.9013 31.7203 22.6347 30.9523 22.4C30.2056 22.144 29.4483 21.856 28.6803 21.536C27.9336 21.216 27.2403 20.8213 26.6003 20.352C25.9816 19.8613 25.4803 19.2427 25.0963 18.496C24.7123 17.728 24.5203 16.768 24.5203 15.616C24.5203 14.2507 24.8509 13.088 25.5123 12.128C26.1736 11.168 27.0803 10.432 28.2323 9.92C29.3843 9.408 30.6856 9.152 32.1363 9.152C33.6723 9.152 35.0589 9.44 36.2963 10.016C37.5336 10.592 38.5469 11.3387 39.3363 12.256L36.4563 15.136C35.7949 14.4107 35.1123 13.8773 34.4083 13.536C33.7256 13.1947 32.9469 13.024 32.0723 13.024C31.0696 13.024 30.2803 13.216 29.7043 13.6C29.1283 13.984 28.8403 14.5387 28.8403 15.264C28.8403 15.8827 29.0323 16.384 29.4163 16.768C29.8003 17.152 30.3016 17.4827 30.9203 17.76C31.5603 18.0373 32.2536 18.304 33.0003 18.56C33.7683 18.816 34.5256 19.104 35.2723 19.424C36.0403 19.744 36.7336 20.16 37.3523 20.672C37.9923 21.184 38.5043 21.8453 38.8883 22.656C39.2723 23.4453 39.4643 24.4267 39.4643 25.6C39.4643 27.6907 38.7283 29.3333 37.2563 30.528C35.7843 31.7227 33.7683 32.32 31.2083 32.32ZM47.83 32.32C46.422 32.32 45.1527 31.968 44.022 31.264C42.8913 30.56 42.006 29.6 41.366 28.384C40.726 27.168 40.406 25.8027 40.406 24.288C40.406 22.752 40.726 21.376 41.366 20.16C42.006 18.944 42.8913 17.984 44.022 17.28C45.1527 16.576 46.422 16.224 47.83 16.224C48.9393 16.224 49.9313 16.448 50.806 16.896C51.6807 17.344 52.374 17.9733 52.886 18.784C53.4193 19.5733 53.7073 20.4693 53.75 21.472V27.04C53.7073 28.064 53.4193 28.9707 52.886 29.76C52.374 30.5493 51.6807 31.1787 50.806 31.648C49.9313 32.096 48.9393 32.32 47.83 32.32ZM48.598 28.448C49.7713 28.448 50.7207 28.064 51.446 27.296C52.1713 26.5067 52.534 25.4933 52.534 24.256C52.534 23.4453 52.3633 22.7307 52.022 22.112C51.702 21.472 51.2433 20.9813 50.646 20.64C50.07 20.2773 49.3873 20.096 48.598 20.096C47.83 20.096 47.1473 20.2773 46.55 20.64C45.974 20.9813 45.5153 21.472 45.174 22.112C44.854 22.7307 44.694 23.4453 44.694 24.256C44.694 25.088 44.854 25.824 45.174 26.464C45.5153 27.0827 45.974 27.5733 46.55 27.936C47.1473 28.2773 47.83 28.448 48.598 28.448ZM52.31 32V27.84L52.982 24.064L52.31 20.352V16.544H56.47V32H52.31ZM64.2425 32L57.4265 16.544H62.0345L66.9305 29.28H64.6585L69.5865 16.544H74.0345L67.2505 32H64.2425ZM81.9317 32.32C80.3104 32.32 78.8704 31.9787 77.6117 31.296C76.3531 30.592 75.3504 29.632 74.6037 28.416C73.8784 27.2 73.5157 25.8133 73.5157 24.256C73.5157 22.72 73.8677 21.3547 74.5717 20.16C75.2971 18.944 76.2784 17.984 77.5157 17.28C78.7531 16.5547 80.1291 16.192 81.6437 16.192C83.1371 16.192 84.4491 16.5333 85.5797 17.216C86.7317 17.8773 87.6277 18.7947 88.2677 19.968C88.9291 21.12 89.2597 22.432 89.2597 23.904C89.2597 24.1813 89.2384 24.4693 89.1957 24.768C89.1744 25.0453 89.1211 25.3653 89.0357 25.728L76.0437 25.76V22.624L87.0837 22.592L85.3877 23.904C85.3451 22.9867 85.1744 22.2187 84.8757 21.6C84.5984 20.9813 84.1824 20.512 83.6277 20.192C83.0944 19.8507 82.4331 19.68 81.6437 19.68C80.8117 19.68 80.0864 19.872 79.4677 20.256C78.8491 20.6187 78.3691 21.1413 78.0277 21.824C77.7077 22.4853 77.5477 23.2747 77.5477 24.192C77.5477 25.1307 77.7184 25.952 78.0597 26.656C78.4224 27.3387 78.9344 27.872 79.5957 28.256C80.2571 28.6187 81.0251 28.8 81.8997 28.8C82.6891 28.8 83.4037 28.672 84.0437 28.416C84.6837 28.1387 85.2384 27.7333 85.7077 27.2L88.1717 29.664C87.4251 30.5387 86.5077 31.2 85.4197 31.648C84.3531 32.096 83.1904 32.32 81.9317 32.32Z" fill="#212529"/>
<path d="M91.8523 32V9.984H94.1883V32H91.8523ZM104.333 32V10.592H106.701V32H104.333ZM96.589 12.128V9.984H114.445V12.128H96.589Z" fill="#2F80ED"/>
<path d="M14.1906 46.7266H15.5764V47.5645H14.1906V49.9707H13.1594V44.2881H14.1906V46.7266ZM11.0754 50.1533C11.7307 50.1533 12.2964 50.2267 12.7727 50.3735C13.2525 50.5203 13.6213 50.7352 13.8791 51.0181C14.1369 51.2974 14.2658 51.6322 14.2658 52.0225C14.2658 52.4128 14.1369 52.7476 13.8791 53.0269C13.6213 53.3097 13.2525 53.5246 12.7727 53.6714C12.2928 53.8218 11.7271 53.8952 11.0754 53.8916C10.4165 53.8952 9.84362 53.8218 9.35664 53.6714C8.86966 53.5246 8.49547 53.3097 8.23408 53.0269C7.97269 52.7476 7.84199 52.4128 7.84199 52.0225C7.84199 51.6322 7.97269 51.2974 8.23408 51.0181C8.49547 50.7352 8.86787 50.5203 9.35127 50.3735C9.83825 50.2267 10.413 50.1533 11.0754 50.1533ZM11.0754 50.9805C10.6135 50.9769 10.2142 51.0163 9.87764 51.0986C9.54463 51.1774 9.28861 51.2956 9.10957 51.4531C8.93411 51.6107 8.84818 51.8005 8.85176 52.0225C8.84818 52.2409 8.93411 52.4307 9.10957 52.5918C9.28861 52.7493 9.54463 52.8693 9.87764 52.9517C10.2106 53.034 10.6099 53.0752 11.0754 53.0752C11.5301 53.0752 11.9222 53.034 12.2517 52.9517C12.5811 52.8693 12.8353 52.7493 13.0144 52.5918C13.1934 52.4307 13.2847 52.2409 13.2883 52.0225C13.2847 51.804 13.1934 51.616 13.0144 51.4585C12.8353 51.2974 12.5793 51.1774 12.2463 51.0986C11.9169 51.0163 11.5266 50.9769 11.0754 50.9805ZM11.3225 45.8242H8.03535V48.4453C9.02363 48.4417 9.82034 48.4185 10.4255 48.3755C11.0306 48.3325 11.6268 48.252 12.2141 48.1338L12.3107 48.9609C11.6984 49.0898 11.0718 49.174 10.4309 49.2134C9.78991 49.2528 8.90905 49.2725 7.78828 49.2725H7.02559V44.9971H11.3225V45.8242ZM24.2157 51.3457H23.1952V44.2988H24.2157V51.3457ZM24.5057 53.709H17.9207V50.6797H18.952V52.8818H24.5057V53.709ZM19.7362 45.7812C19.7326 46.2503 19.8257 46.6979 20.0155 47.124C20.2088 47.5501 20.4845 47.9261 20.8426 48.252C21.2007 48.5778 21.6232 48.8249 22.1102 48.9932L21.5838 49.8096C21.0324 49.6055 20.5544 49.3083 20.1497 48.918C19.7487 48.5241 19.439 48.0622 19.2205 47.5322C19.0057 48.098 18.6924 48.5939 18.2806 49.02C17.8724 49.4461 17.3908 49.7666 16.8358 49.9814L16.2879 49.1758C16.7821 48.9932 17.21 48.7282 17.5716 48.3809C17.9369 48.0335 18.2144 47.6343 18.4041 47.1831C18.5975 46.7319 18.6942 46.2646 18.6942 45.7812V44.8252H19.7362V45.7812ZM28.9878 44.9756C29.4891 44.972 29.9385 45.0669 30.3359 45.2603C30.7334 45.4536 31.0431 45.7257 31.2651 46.0767C31.4907 46.424 31.6053 46.8197 31.6089 47.2637C31.6053 47.7077 31.4907 48.1051 31.2651 48.4561C31.0431 48.8034 30.7334 49.0755 30.3359 49.2725C29.9385 49.4658 29.4891 49.5625 28.9878 49.5625C28.4865 49.5625 28.0353 49.4658 27.6343 49.2725C27.2368 49.0755 26.9253 48.8034 26.6997 48.4561C26.4741 48.1051 26.3631 47.7077 26.3667 47.2637C26.3631 46.8197 26.4741 46.424 26.6997 46.0767C26.9253 45.7257 27.2368 45.4536 27.6343 45.2603C28.0353 45.0669 28.4865 44.972 28.9878 44.9756ZM28.9878 45.8564C28.6762 45.8564 28.397 45.9155 28.1499 46.0337C27.9064 46.1483 27.7148 46.313 27.5752 46.5278C27.4391 46.7391 27.3729 46.9844 27.3764 47.2637C27.3729 47.543 27.4391 47.79 27.5752 48.0049C27.7148 48.2161 27.9064 48.3809 28.1499 48.499C28.397 48.6136 28.6762 48.6709 28.9878 48.6709C29.2993 48.6709 29.5768 48.6136 29.8203 48.499C30.0674 48.3809 30.2607 48.2161 30.4004 48.0049C30.54 47.79 30.6098 47.543 30.6098 47.2637C30.6098 46.9844 30.54 46.7391 30.4004 46.5278C30.2607 46.313 30.0674 46.1483 29.8203 46.0337C29.5768 45.9155 29.2993 45.8564 28.9878 45.8564ZM33.811 53.9346H32.7905V44.2881H33.811V53.9346ZM25.9048 51.0127C27.0936 51.0127 28.2036 50.993 29.2348 50.9536C30.2697 50.9106 31.2544 50.8229 32.1889 50.6904L32.2641 51.4316C31.3045 51.6178 30.3288 51.736 29.3369 51.7861C28.3486 51.8363 27.2475 51.8613 26.0337 51.8613L25.9048 51.0127ZM46.2986 53.9346H45.2781V48.585H43.2908V47.7471H45.2781V44.2881H46.2986V53.9346ZM41.7009 46.9951C41.7009 47.5358 41.8066 48.0765 42.0178 48.6172C42.2291 49.1579 42.5245 49.6431 42.9041 50.0728C43.2872 50.4989 43.7205 50.8193 44.2039 51.0342L43.5916 51.8506C43.0437 51.5856 42.5603 51.1917 42.1414 50.6689C41.726 50.1426 41.4109 49.5464 41.1961 48.8804C40.9776 49.5894 40.6572 50.2249 40.2346 50.7871C39.8121 51.3457 39.3269 51.7646 38.7791 52.0439L38.156 51.249C38.6358 51.0199 39.0655 50.6815 39.4451 50.2339C39.8282 49.7827 40.1272 49.2743 40.3421 48.7085C40.5569 48.1392 40.6661 47.568 40.6697 46.9951V46.0928H38.5427V45.2549H43.8386V46.0928H41.7009V46.9951ZM56.6566 49.917H52.768V50.9268H55.5824V53.8916H54.5512V51.7539H48.8578V50.9268H51.7582V49.917H47.8803V49.1006H56.6566V49.917ZM52.768 45.2119H55.7758V46.0176H52.827C52.8593 46.3327 53.0186 46.6191 53.3051 46.877C53.5951 47.1312 53.9854 47.3442 54.476 47.5161C54.9701 47.6844 55.5359 47.7972 56.1732 47.8545L55.851 48.6172C55.0059 48.542 54.2683 48.3665 53.6381 48.0908C53.0115 47.8115 52.5531 47.4499 52.2631 47.0059C51.9695 47.4499 51.5076 47.8115 50.8773 48.0908C50.2507 48.3665 49.5167 48.542 48.6752 48.6172L48.3529 47.8545C48.9867 47.7972 49.5489 47.6844 50.0395 47.5161C50.5336 47.3442 50.9239 47.1312 51.2104 46.877C51.5004 46.6191 51.6633 46.3327 51.6991 46.0176H48.7611V45.2119H51.7582V44.2559H52.768V45.2119ZM61.8799 44.4492C62.6032 44.4492 63.2209 44.5137 63.7329 44.6426C64.2486 44.7679 64.6407 44.9541 64.9092 45.2012C65.1814 45.4482 65.3174 45.749 65.3174 46.1035C65.3174 46.458 65.1814 46.7606 64.9092 47.0112C64.6407 47.2583 64.2486 47.4463 63.7329 47.5752C63.2209 47.7041 62.6032 47.7686 61.8799 47.7686C61.1566 47.7686 60.5371 47.7041 60.0215 47.5752C59.5095 47.4463 59.1174 47.2583 58.8453 47.0112C58.5767 46.7606 58.4424 46.458 58.4424 46.1035C58.4424 45.749 58.5767 45.4482 58.8453 45.2012C59.1174 44.9541 59.5095 44.7679 60.0215 44.6426C60.5371 44.5137 61.1566 44.4492 61.8799 44.4492ZM61.8799 45.2012C61.1136 45.2012 60.5246 45.2799 60.1128 45.4375C59.701 45.5951 59.4987 45.8171 59.5059 46.1035C59.5023 46.3971 59.7028 46.6209 60.1075 46.7749C60.5157 46.9289 61.1065 47.0059 61.8799 47.0059C62.6498 47.0059 63.2388 46.9289 63.647 46.7749C64.0588 46.6209 64.2647 46.3971 64.2647 46.1035C64.2647 45.8171 64.057 45.5951 63.6416 45.4375C63.2299 45.2799 62.6426 45.2012 61.8799 45.2012ZM66.2735 49.1758H57.4971V48.3594H66.2735V49.1758ZM65.167 52.1729H59.5596V53.0322H65.4356V53.8164H58.5606V51.4316H64.1573V50.6797H58.5498V49.917H65.167V52.1729ZM73.0677 44.7285C73.5475 44.7285 73.9772 44.8127 74.3568 44.981C74.7363 45.1493 75.0335 45.3856 75.2484 45.6899C75.4632 45.9907 75.5706 46.3363 75.5706 46.7266C75.5706 47.1133 75.4632 47.4588 75.2484 47.7632C75.0335 48.0675 74.7363 48.3039 74.3568 48.4722C73.9772 48.6369 73.5475 48.7174 73.0677 48.7139C72.5879 48.7174 72.16 48.6369 71.784 48.4722C71.408 48.3039 71.1144 48.0693 70.9031 47.7686C70.6919 47.4642 70.5863 47.1169 70.5863 46.7266C70.5863 46.3363 70.6919 45.9889 70.9031 45.6846C71.1144 45.3802 71.408 45.1457 71.784 44.981C72.16 44.8127 72.5879 44.7285 73.0677 44.7285ZM73.0677 45.5557C72.7777 45.5557 72.5181 45.604 72.2889 45.7007C72.0633 45.7974 71.8861 45.9352 71.7571 46.1143C71.6318 46.2897 71.571 46.4938 71.5745 46.7266C71.571 46.9557 71.6318 47.158 71.7571 47.3335C71.8861 47.509 72.0651 47.645 72.2943 47.7417C72.5234 47.8348 72.7812 47.8796 73.0677 47.876C73.3613 47.8796 73.6245 47.8348 73.8572 47.7417C74.09 47.645 74.2708 47.509 74.3997 47.3335C74.5286 47.158 74.5931 46.9557 74.5931 46.7266C74.5931 46.4938 74.5286 46.2897 74.3997 46.1143C74.2708 45.9352 74.09 45.7974 73.8572 45.7007C73.6281 45.604 73.3649 45.5557 73.0677 45.5557ZM77.9124 53.9131H76.9027V44.2988H77.9124V53.9131ZM69.8988 49.4658C71.0374 49.4658 72.1421 49.4425 73.2127 49.396C74.2869 49.3459 75.2949 49.251 76.2366 49.1113L76.3118 49.874C75.5241 50.0244 74.6325 50.1354 73.637 50.207V53.6123H72.6165V50.2607C72.0078 50.2894 71.1484 50.3073 70.0384 50.3145L69.8988 49.4658ZM87.0888 47.3926H88.4853V48.2412H87.0888V51.4961H86.0683V44.2988H87.0888V47.3926ZM85.2734 46.2432H79.5371V45.416H81.9003V44.2881H82.9209V45.416H85.2734V46.2432ZM82.4052 46.7051C82.8636 46.7051 83.2682 46.7803 83.6191 46.9307C83.9736 47.0811 84.2475 47.2941 84.4409 47.5698C84.6378 47.842 84.7363 48.1589 84.7363 48.5205C84.7363 48.8822 84.6378 49.1991 84.4409 49.4712C84.2475 49.7433 83.9736 49.9546 83.6191 50.105C83.2682 50.2518 82.8636 50.3252 82.4052 50.3252C81.9433 50.3252 81.5351 50.2518 81.1806 50.105C80.8261 49.9546 80.5504 49.7433 80.3535 49.4712C80.1601 49.1991 80.0634 48.8822 80.0634 48.5205C80.0634 48.1589 80.1601 47.842 80.3535 47.5698C80.5504 47.2941 80.8261 47.0811 81.1806 46.9307C81.5351 46.7803 81.9433 46.7051 82.4052 46.7051ZM82.4052 47.4893C82.1331 47.4893 81.8932 47.5322 81.6855 47.6182C81.4814 47.7005 81.3238 47.8205 81.2128 47.978C81.1018 48.132 81.0481 48.3128 81.0517 48.5205C81.0481 48.7246 81.1018 48.9036 81.2128 49.0576C81.3238 49.208 81.4814 49.3244 81.6855 49.4067C81.8932 49.4891 82.1331 49.5303 82.4052 49.5303C82.6774 49.5303 82.9155 49.4891 83.1196 49.4067C83.3273 49.3244 83.4884 49.208 83.603 49.0576C83.7176 48.9036 83.7766 48.7246 83.7802 48.5205C83.7766 48.3128 83.7176 48.132 83.603 47.978C83.4884 47.8205 83.3273 47.7005 83.1196 47.6182C82.9155 47.5322 82.6774 47.4893 82.4052 47.4893ZM87.497 53.709H80.9873V50.9268H82.0078V52.8818H87.497V53.709ZM95.301 46.0176C95.301 46.4294 95.3923 46.825 95.5749 47.2046C95.7611 47.5841 96.0279 47.9225 96.3752 48.2197C96.7261 48.5169 97.1415 48.7461 97.6213 48.9072L97.1057 49.7021C96.5686 49.516 96.1013 49.2438 95.7038 48.8857C95.31 48.5277 95.0074 48.1105 94.7961 47.6343C94.5849 48.1571 94.2733 48.6136 93.8616 49.0039C93.4534 49.3942 92.97 49.6878 92.4114 49.8848L91.8635 49.0898C92.3577 48.9215 92.7855 48.6799 93.1472 48.3647C93.5089 48.0496 93.7864 47.6898 93.9797 47.2852C94.1767 46.877 94.2769 46.4508 94.2805 46.0068V45.749H92.1643V44.9219H97.3743V45.749H95.301V46.0176ZM99.5012 46.7588H100.898V47.6182H99.5012V50.0889H98.4807V44.2881H99.5012V46.7588ZM99.5012 53.9131H98.4807V51.3887H93.1418V50.5615H99.5012V53.9131ZM110.332 50.1318H101.556V49.3154H110.332V50.1318ZM109.344 53.709H102.662V50.916H103.693V52.8818H109.344V53.709ZM105.938 44.6104C106.629 44.6068 107.233 44.682 107.748 44.8359C108.268 44.9899 108.669 45.2119 108.952 45.502C109.234 45.792 109.376 46.1357 109.376 46.5332C109.376 46.9342 109.234 47.2816 108.952 47.5752C108.672 47.8652 108.273 48.089 107.754 48.2466C107.235 48.4041 106.629 48.4847 105.938 48.4883C105.244 48.4847 104.637 48.4041 104.118 48.2466C103.602 48.089 103.203 47.8652 102.92 47.5752C102.641 47.2816 102.501 46.9342 102.501 46.5332C102.501 46.1357 102.641 45.792 102.92 45.502C103.203 45.2119 103.602 44.9899 104.118 44.8359C104.637 44.682 105.244 44.6068 105.938 44.6104ZM105.938 45.4268C105.451 45.4268 105.027 45.4715 104.665 45.561C104.307 45.6506 104.032 45.7795 103.838 45.9478C103.645 46.1125 103.55 46.3076 103.554 46.5332C103.55 46.766 103.643 46.9665 103.833 47.1348C104.026 47.3031 104.302 47.432 104.66 47.5215C105.022 47.6074 105.448 47.6504 105.938 47.6504C106.429 47.6504 106.853 47.6074 107.211 47.5215C107.569 47.432 107.843 47.3031 108.033 47.1348C108.226 46.9665 108.323 46.766 108.323 46.5332C108.323 46.3076 108.226 46.1125 108.033 45.9478C107.84 45.7795 107.564 45.6506 107.206 45.561C106.848 45.4715 106.425 45.4268 105.938 45.4268ZM116.063 51.0771H120.585V50.0566H121.606V53.7949H115.053V50.0566H116.063V51.0771ZM120.585 52.9785V51.8721H116.063V52.9785H120.585ZM122.744 49.4551H113.968V48.6064H122.744V49.4551ZM118.877 44.8037C118.877 45.1654 119.029 45.5181 119.334 45.8618C119.642 46.202 120.053 46.4938 120.569 46.7373C121.088 46.9772 121.652 47.1348 122.261 47.21L121.896 48.0156C121.108 47.9046 120.397 47.6737 119.763 47.3228C119.133 46.9718 118.664 46.5439 118.356 46.0391C118.048 46.5475 117.577 46.9772 116.944 47.3281C116.313 47.6755 115.608 47.9046 114.827 48.0156L114.441 47.21C115.056 47.1312 115.624 46.9736 116.143 46.7373C116.662 46.501 117.074 46.2127 117.379 45.8726C117.683 45.5324 117.835 45.1761 117.835 44.8037V44.3955H118.877V44.8037ZM128.945 45.5557V45.6846C128.938 46.168 128.92 46.6138 128.891 47.022C128.863 47.4302 128.798 47.8903 128.698 48.4023L127.688 48.3057C127.781 47.8258 127.844 47.3962 127.876 47.0166C127.912 46.6335 127.934 46.2467 127.941 45.8564H124.09V45.0186H128.945V45.5557ZM126.485 49.1704C127.656 49.1274 128.677 49.0433 129.547 48.918L129.611 49.6592C128.723 49.8167 127.792 49.9206 126.818 49.9707C125.844 50.0208 124.774 50.0495 123.606 50.0566L123.51 49.2295H123.628L125.475 49.2026V47.1777H126.485V49.1704ZM131.201 47.3496H132.522V48.209H131.201V51.5176H130.159V44.2881H131.201V47.3496ZM131.512 53.709H124.971V50.8623H125.991V52.8818H131.512V53.709Z" fill="#666666"/>
</svg>
