<svg width="13" height="13" viewBox="0 0 13 13" fill="none" xmlns="http://www.w3.org/2000/svg">
<path d="M5.12995 7.89269L9.36745 3.65519C9.46745 3.55519 9.58412 3.50519 9.71745 3.50519C9.85078 3.50519 9.96745 3.55519 10.0674 3.65519C10.1674 3.75519 10.2174 3.87402 10.2174 4.01169C10.2174 4.14935 10.1674 4.26802 10.0674 4.36769L5.47995 8.96769C5.37995 9.06769 5.26328 9.11769 5.12995 9.11769C4.99662 9.11769 4.87995 9.06769 4.77995 8.96769L2.62995 6.81769C2.52995 6.71769 2.48195 6.59902 2.48595 6.46169C2.48995 6.32435 2.54212 6.20552 2.64245 6.10519C2.74278 6.00485 2.86162 5.95485 2.99895 5.95519C3.13628 5.95552 3.25495 6.00552 3.35495 6.10519L5.12995 7.89269Z" fill="#27AE60"/>
</svg>
