<svg width="12" height="12" viewBox="0 0 12 12" fill="none" xmlns="http://www.w3.org/2000/svg">
<path d="M6.00002 6.69999L3.55002 9.14999C3.45836 9.24166 3.34169 9.28749 3.20002 9.28749C3.05836 9.28749 2.94169 9.24166 2.85002 9.14999C2.75836 9.05833 2.71252 8.94166 2.71252 8.79999C2.71252 8.65833 2.75836 8.54166 2.85002 8.44999L5.30002 5.99999L2.85002 3.54999C2.75836 3.45833 2.71252 3.34166 2.71252 3.19999C2.71252 3.05833 2.75836 2.94166 2.85002 2.84999C2.94169 2.75833 3.05836 2.71249 3.20002 2.71249C3.34169 2.71249 3.45836 2.75833 3.55002 2.84999L6.00002 5.29999L8.45002 2.84999C8.54169 2.75833 8.65836 2.71249 8.80002 2.71249C8.94169 2.71249 9.05836 2.75833 9.15002 2.84999C9.24169 2.94166 9.28752 3.05833 9.28752 3.19999C9.28752 3.34166 9.24169 3.45833 9.15002 3.54999L6.70002 5.99999L9.15002 8.44999C9.24169 8.54166 9.28752 8.65833 9.28752 8.79999C9.28752 8.94166 9.24169 9.05833 9.15002 9.14999C9.05836 9.24166 8.94169 9.28749 8.80002 9.28749C8.65836 9.28749 8.54169 9.24166 8.45002 9.14999L6.00002 6.69999Z" fill="#666666"/>
</svg>
