<svg width="12" height="12" viewBox="0 0 12 12" fill="none" xmlns="http://www.w3.org/2000/svg">
<path d="M3.5 10.5C3.225 10.5 2.98967 10.4022 2.794 10.2065C2.59834 10.0109 2.50034 9.77535 2.5 9.5V3C2.35834 3 2.23967 2.952 2.144 2.856C2.04834 2.76 2.00034 2.64133 2 2.5C1.99967 2.35867 2.04767 2.24 2.144 2.144C2.24034 2.048 2.359 2 2.5 2H4.5C4.5 1.85834 4.548 1.73967 4.644 1.644C4.74 1.54834 4.85867 1.50033 5 1.5H7C7.14165 1.5 7.2605 1.548 7.3565 1.644C7.4525 1.74 7.50035 1.85867 7.5 2H9.5C9.64165 2 9.7605 2.048 9.8565 2.144C9.9525 2.24 10.0004 2.35867 10 2.5C9.99965 2.64133 9.95165 2.76016 9.856 2.8565C9.76035 2.95283 9.64165 3.00066 9.5 3V9.5C9.5 9.775 9.40215 10.0105 9.2065 10.2065C9.01085 10.4025 8.77535 10.5003 8.5 10.5H3.5ZM8.5 3H3.5V9.5H8.5V3ZM5 8.5C5.14165 8.5 5.2605 8.452 5.3565 8.356C5.4525 8.26 5.50035 8.14135 5.5 8V4.5C5.5 4.35834 5.452 4.23967 5.356 4.144C5.26 4.04834 5.14135 4.00033 5 4C4.85867 3.99967 4.74 4.04767 4.644 4.144C4.548 4.24034 4.5 4.359 4.5 4.5V8C4.5 8.14165 4.548 8.2605 4.644 8.3565C4.74 8.4525 4.85867 8.50035 5 8.5ZM7 8.5C7.14165 8.5 7.2605 8.452 7.3565 8.356C7.4525 8.26 7.50035 8.14135 7.5 8V4.5C7.5 4.35834 7.452 4.23967 7.356 4.144C7.26 4.04834 7.14135 4.00033 7 4C6.85865 3.99967 6.74 4.04767 6.644 4.144C6.548 4.24034 6.5 4.359 6.5 4.5V8C6.5 8.14165 6.548 8.2605 6.644 8.3565C6.74 8.4525 6.85865 8.50035 7 8.5Z" fill="#777777"/>
</svg>
