<svg width="432" height="207" viewBox="0 0 432 207" fill="none" xmlns="http://www.w3.org/2000/svg">
<path d="M41.2132 149.48C32.8265 149.48 25.6238 148.049 19.6052 145.188C13.6852 142.327 8.30782 138.035 3.47316 132.312L16.7932 118.992C19.8518 123.037 23.4038 126.195 27.4492 128.464C31.4945 130.635 36.4278 131.72 42.2492 131.72C47.4785 131.72 51.6225 130.684 54.6812 128.612C57.8385 126.54 59.4172 123.679 59.4172 120.028C59.4172 116.871 58.5292 114.305 56.7532 112.332C54.9772 110.359 52.6092 108.681 49.6492 107.3C46.7878 105.919 43.5812 104.685 40.0292 103.6C36.5758 102.416 33.0732 101.084 29.5212 99.604C26.0678 98.124 22.8612 96.2987 19.9012 94.128C17.0398 91.8587 14.7212 88.9973 12.9452 85.544C11.1692 81.992 10.2812 77.552 10.2812 72.224C10.2812 65.9093 11.8105 60.532 14.8692 56.092C17.9278 51.652 22.1212 48.248 27.4492 45.88C32.7772 43.512 38.7958 42.328 45.5052 42.328C52.6092 42.328 59.0225 43.66 64.7452 46.324C70.4678 48.988 75.1545 52.4413 78.8052 56.684L65.4852 70.004C62.4265 66.6493 59.2692 64.1827 56.0132 62.604C52.8558 61.0253 49.2545 60.236 45.2092 60.236C40.5718 60.236 36.9212 61.124 34.2572 62.9C31.5932 64.676 30.2612 67.2413 30.2612 70.596C30.2612 73.4573 31.1492 75.776 32.9252 77.552C34.7012 79.328 37.0198 80.8573 39.8812 82.14C42.8412 83.4227 46.0478 84.656 49.5012 85.84C53.0532 87.024 56.5558 88.356 60.0092 89.836C63.5612 91.316 66.7678 93.24 69.6292 95.608C72.5892 97.976 74.9572 101.035 76.7332 104.784C78.5092 108.435 79.3972 112.973 79.3972 118.4C79.3972 128.069 75.9932 135.667 69.1852 141.192C62.3772 146.717 53.0532 149.48 41.2132 149.48ZM118.089 149.48C111.577 149.48 105.706 147.852 100.477 144.596C95.2474 141.34 91.1528 136.9 88.1927 131.276C85.2327 125.652 83.7527 119.337 83.7527 112.332C83.7527 105.228 85.2327 98.864 88.1927 93.24C91.1528 87.616 95.2474 83.176 100.477 79.92C105.706 76.664 111.577 75.036 118.089 75.036C123.219 75.036 127.807 76.072 131.853 78.144C135.898 80.216 139.105 83.1267 141.473 86.876C143.939 90.5267 145.271 94.6707 145.469 99.308V125.06C145.271 129.796 143.939 133.989 141.473 137.64C139.105 141.291 135.898 144.201 131.853 146.372C127.807 148.444 123.219 149.48 118.089 149.48ZM121.641 131.572C127.067 131.572 131.458 129.796 134.813 126.244C138.167 122.593 139.845 117.907 139.845 112.184C139.845 108.435 139.055 105.129 137.477 102.268C135.997 99.308 133.875 97.0387 131.113 95.46C128.449 93.7827 125.291 92.944 121.641 92.944C118.089 92.944 114.931 93.7827 112.169 95.46C109.505 97.0387 107.383 99.308 105.805 102.268C104.325 105.129 103.585 108.435 103.585 112.184C103.585 116.032 104.325 119.436 105.805 122.396C107.383 125.257 109.505 127.527 112.169 129.204C114.931 130.783 118.089 131.572 121.641 131.572ZM138.809 148V128.76L141.917 111.296L138.809 94.128V76.516H158.049V148H138.809ZM193.997 148L162.473 76.516H183.785L206.429 135.42H195.921L218.713 76.516H239.285L207.909 148H193.997ZM275.809 149.48C268.311 149.48 261.651 147.901 255.829 144.744C250.008 141.488 245.371 137.048 241.917 131.424C238.563 125.8 236.885 119.387 236.885 112.184C236.885 105.08 238.513 98.7653 241.769 93.24C245.124 87.616 249.663 83.176 255.385 79.92C261.108 76.5653 267.472 74.888 274.477 74.888C281.384 74.888 287.452 76.4667 292.681 79.624C298.009 82.6827 302.153 86.9253 305.113 92.352C308.172 97.68 309.701 103.748 309.701 110.556C309.701 111.839 309.603 113.171 309.405 114.552C309.307 115.835 309.06 117.315 308.665 118.992L248.577 119.14V104.636L299.637 104.488L291.793 110.556C291.596 106.313 290.807 102.761 289.425 99.9C288.143 97.0387 286.219 94.868 283.653 93.388C281.187 91.8093 278.128 91.02 274.477 91.02C270.629 91.02 267.275 91.908 264.413 93.684C261.552 95.3613 259.332 97.7787 257.753 100.936C256.273 103.995 255.533 107.645 255.533 111.888C255.533 116.229 256.323 120.028 257.901 123.284C259.579 126.441 261.947 128.908 265.005 130.684C268.064 132.361 271.616 133.2 275.661 133.2C279.312 133.2 282.617 132.608 285.577 131.424C288.537 130.141 291.103 128.267 293.273 125.8L304.669 137.196C301.216 141.241 296.973 144.3 291.941 146.372C287.008 148.444 281.631 149.48 275.809 149.48Z" fill="#212529"/>
<path d="M321.692 148V46.176H332.496V148H321.692ZM379.415 148V48.988H390.367V148H379.415ZM343.599 56.092V46.176H426.183V56.092H343.599Z" fill="#2F80ED"/>
<path d="M124.994 192.734H127.261V194.105H124.994V198.043H123.306V188.744H124.994V192.734ZM119.896 198.342C120.968 198.342 121.894 198.462 122.673 198.702C123.459 198.942 124.062 199.294 124.484 199.757C124.906 200.214 125.117 200.762 125.117 201.4C125.117 202.039 124.906 202.587 124.484 203.044C124.062 203.507 123.459 203.858 122.673 204.099C121.888 204.345 120.963 204.465 119.896 204.459C118.818 204.465 117.88 204.345 117.084 204.099C116.287 203.858 115.674 203.507 115.247 203.044C114.819 202.587 114.605 202.039 114.605 201.4C114.605 200.762 114.819 200.214 115.247 199.757C115.674 199.294 116.284 198.942 117.075 198.702C117.872 198.462 118.812 198.342 119.896 198.342ZM119.896 199.695C119.14 199.689 118.487 199.754 117.936 199.889C117.391 200.018 116.972 200.211 116.679 200.469C116.392 200.727 116.252 201.037 116.257 201.4C116.252 201.758 116.392 202.068 116.679 202.332C116.972 202.59 117.391 202.786 117.936 202.921C118.481 203.056 119.134 203.123 119.896 203.123C120.64 203.123 121.282 203.056 121.821 202.921C122.36 202.786 122.776 202.59 123.069 202.332C123.362 202.068 123.511 201.758 123.517 201.4C123.511 201.043 123.362 200.735 123.069 200.478C122.776 200.214 122.357 200.018 121.812 199.889C121.273 199.754 120.634 199.689 119.896 199.695ZM120.3 191.258H114.921V195.547C116.539 195.541 117.842 195.503 118.833 195.433C119.823 195.362 120.798 195.23 121.759 195.037L121.918 196.391C120.916 196.602 119.89 196.739 118.841 196.804C117.793 196.868 116.351 196.9 114.517 196.9H113.269V189.904H120.3V191.258ZM141.398 200.293H139.728V188.762H141.398V200.293ZM141.873 204.16H131.098V199.203H132.785V202.807H141.873V204.16ZM134.068 191.188C134.062 191.955 134.215 192.688 134.525 193.385C134.842 194.082 135.293 194.697 135.879 195.23C136.465 195.764 137.156 196.168 137.953 196.443L137.092 197.779C136.189 197.445 135.407 196.959 134.745 196.32C134.089 195.676 133.582 194.92 133.225 194.053C132.873 194.979 132.36 195.79 131.686 196.487C131.018 197.185 130.23 197.709 129.322 198.061L128.426 196.742C129.234 196.443 129.934 196.01 130.526 195.441C131.124 194.873 131.578 194.22 131.889 193.481C132.205 192.743 132.363 191.979 132.363 191.188V189.623H134.068V191.188ZM149.207 189.869C150.028 189.863 150.763 190.019 151.413 190.335C152.064 190.651 152.571 191.097 152.934 191.671C153.303 192.239 153.49 192.887 153.496 193.613C153.49 194.34 153.303 194.99 152.934 195.564C152.571 196.133 152.064 196.578 151.413 196.9C150.763 197.217 150.028 197.375 149.207 197.375C148.387 197.375 147.649 197.217 146.992 196.9C146.342 196.578 145.832 196.133 145.463 195.564C145.094 194.99 144.912 194.34 144.918 193.613C144.912 192.887 145.094 192.239 145.463 191.671C145.832 191.097 146.342 190.651 146.992 190.335C147.649 190.019 148.387 189.863 149.207 189.869ZM149.207 191.311C148.698 191.311 148.24 191.407 147.836 191.601C147.438 191.788 147.124 192.058 146.896 192.409C146.673 192.755 146.565 193.156 146.571 193.613C146.565 194.07 146.673 194.475 146.896 194.826C147.124 195.172 147.438 195.441 147.836 195.635C148.24 195.822 148.698 195.916 149.207 195.916C149.717 195.916 150.171 195.822 150.57 195.635C150.974 195.441 151.29 195.172 151.519 194.826C151.747 194.475 151.862 194.07 151.862 193.613C151.862 193.156 151.747 192.755 151.519 192.409C151.29 192.058 150.974 191.788 150.57 191.601C150.171 191.407 149.717 191.311 149.207 191.311ZM157.1 204.529H155.43V188.744H157.1V204.529ZM144.162 199.748C146.108 199.748 147.924 199.716 149.612 199.651C151.305 199.581 152.916 199.438 154.446 199.221L154.569 200.434C152.998 200.738 151.402 200.932 149.779 201.014C148.161 201.096 146.36 201.137 144.373 201.137L144.162 199.748ZM177.534 204.529H175.864V195.775H172.612V194.404H175.864V188.744H177.534V204.529ZM170.011 193.174C170.011 194.059 170.183 194.943 170.529 195.828C170.875 196.713 171.358 197.507 171.979 198.21C172.606 198.907 173.315 199.432 174.106 199.783L173.104 201.119C172.208 200.686 171.417 200.041 170.731 199.186C170.052 198.324 169.536 197.349 169.184 196.259C168.827 197.419 168.303 198.459 167.611 199.379C166.92 200.293 166.126 200.979 165.229 201.436L164.21 200.135C164.995 199.76 165.698 199.206 166.319 198.474C166.946 197.735 167.435 196.903 167.787 195.978C168.139 195.046 168.317 194.111 168.323 193.174V191.697H164.843V190.326H173.509V191.697H170.011V193.174ZM194.484 197.955H188.12V199.607H192.726V204.459H191.038V200.961H181.722V199.607H186.468V197.955H180.122V196.619H194.484V197.955ZM188.12 190.256H193.042V191.574H188.217C188.27 192.09 188.53 192.559 188.999 192.98C189.474 193.396 190.113 193.745 190.915 194.026C191.724 194.302 192.65 194.486 193.693 194.58L193.165 195.828C191.782 195.705 190.575 195.418 189.544 194.967C188.519 194.51 187.769 193.918 187.294 193.191C186.814 193.918 186.058 194.51 185.027 194.967C184.001 195.418 182.8 195.705 181.423 195.828L180.896 194.58C181.933 194.486 182.853 194.302 183.655 194.026C184.464 193.745 185.103 193.396 185.571 192.98C186.046 192.559 186.313 192.09 186.371 191.574H181.564V190.256H186.468V188.691H188.12V190.256ZM203.031 189.008C204.214 189.008 205.225 189.113 206.063 189.324C206.907 189.529 207.548 189.834 207.988 190.238C208.433 190.643 208.656 191.135 208.656 191.715C208.656 192.295 208.433 192.79 207.988 193.2C207.548 193.604 206.907 193.912 206.063 194.123C205.225 194.334 204.214 194.439 203.031 194.439C201.847 194.439 200.834 194.334 199.99 194.123C199.152 193.912 198.51 193.604 198.065 193.2C197.626 192.79 197.406 192.295 197.406 191.715C197.406 191.135 197.626 190.643 198.065 190.238C198.51 189.834 199.152 189.529 199.99 189.324C200.834 189.113 201.847 189.008 203.031 189.008ZM203.031 190.238C201.777 190.238 200.813 190.367 200.139 190.625C199.465 190.883 199.134 191.246 199.146 191.715C199.14 192.195 199.468 192.562 200.13 192.813C200.798 193.065 201.765 193.191 203.031 193.191C204.291 193.191 205.254 193.065 205.922 192.813C206.596 192.562 206.933 192.195 206.933 191.715C206.933 191.246 206.593 190.883 205.914 190.625C205.24 190.367 204.279 190.238 203.031 190.238ZM210.22 196.742H195.859V195.406H210.22V196.742ZM208.41 201.646H199.234V203.053H208.849V204.336H197.599V200.434H206.757V199.203H197.582V197.955H208.41V201.646ZM221.338 189.465C222.123 189.465 222.826 189.603 223.447 189.878C224.069 190.153 224.555 190.54 224.906 191.038C225.258 191.53 225.434 192.096 225.434 192.734C225.434 193.367 225.258 193.933 224.906 194.431C224.555 194.929 224.069 195.315 223.447 195.591C222.826 195.86 222.123 195.992 221.338 195.986C220.553 195.992 219.853 195.86 219.237 195.591C218.622 195.315 218.142 194.932 217.796 194.439C217.45 193.941 217.278 193.373 217.278 192.734C217.278 192.096 217.45 191.527 217.796 191.029C218.142 190.531 218.622 190.147 219.237 189.878C219.853 189.603 220.553 189.465 221.338 189.465ZM221.338 190.818C220.863 190.818 220.439 190.897 220.064 191.056C219.694 191.214 219.404 191.439 219.194 191.732C218.988 192.02 218.889 192.354 218.895 192.734C218.889 193.109 218.988 193.44 219.194 193.728C219.404 194.015 219.697 194.237 220.072 194.396C220.447 194.548 220.869 194.621 221.338 194.615C221.819 194.621 222.249 194.548 222.63 194.396C223.011 194.237 223.307 194.015 223.518 193.728C223.729 193.44 223.834 193.109 223.834 192.734C223.834 192.354 223.729 192.02 223.518 191.732C223.307 191.439 223.011 191.214 222.63 191.056C222.255 190.897 221.824 190.818 221.338 190.818ZM229.266 204.494H227.613V188.762H229.266V204.494ZM216.153 197.217C218.016 197.217 219.823 197.179 221.575 197.103C223.333 197.021 224.983 196.865 226.524 196.637L226.647 197.885C225.358 198.131 223.899 198.312 222.27 198.43V204.002H220.6V198.518C219.604 198.564 218.197 198.594 216.381 198.605L216.153 197.217ZM244.282 193.824H246.567V195.213H244.282V200.539H242.612V188.762H244.282V193.824ZM241.311 191.943H231.924V190.59H235.791V188.744H237.461V190.59H241.311V191.943ZM236.618 192.699C237.368 192.699 238.03 192.822 238.604 193.068C239.184 193.314 239.632 193.663 239.949 194.114C240.271 194.56 240.432 195.078 240.432 195.67C240.432 196.262 240.271 196.78 239.949 197.226C239.632 197.671 239.184 198.017 238.604 198.263C238.03 198.503 237.368 198.623 236.618 198.623C235.862 198.623 235.194 198.503 234.614 198.263C234.034 198.017 233.583 197.671 233.26 197.226C232.944 196.78 232.786 196.262 232.786 195.67C232.786 195.078 232.944 194.56 233.26 194.114C233.583 193.663 234.034 193.314 234.614 193.068C235.194 192.822 235.862 192.699 236.618 192.699ZM236.618 193.982C236.172 193.982 235.78 194.053 235.44 194.193C235.106 194.328 234.848 194.524 234.666 194.782C234.485 195.034 234.397 195.33 234.403 195.67C234.397 196.004 234.485 196.297 234.666 196.549C234.848 196.795 235.106 196.985 235.44 197.12C235.78 197.255 236.172 197.322 236.618 197.322C237.063 197.322 237.453 197.255 237.787 197.12C238.126 196.985 238.39 196.795 238.578 196.549C238.765 196.297 238.862 196.004 238.868 195.67C238.862 195.33 238.765 195.034 238.578 194.782C238.39 194.524 238.126 194.328 237.787 194.193C237.453 194.053 237.063 193.982 236.618 193.982ZM244.95 204.16H234.297V199.607H235.967V202.807H244.95V204.16ZM257.72 191.574C257.72 192.248 257.869 192.896 258.168 193.517C258.473 194.138 258.909 194.691 259.478 195.178C260.052 195.664 260.732 196.039 261.517 196.303L260.673 197.604C259.794 197.299 259.029 196.854 258.379 196.268C257.734 195.682 257.239 194.999 256.894 194.22C256.548 195.075 256.038 195.822 255.364 196.461C254.696 197.1 253.905 197.58 252.991 197.902L252.095 196.602C252.903 196.326 253.604 195.931 254.195 195.415C254.787 194.899 255.241 194.311 255.558 193.648C255.88 192.98 256.044 192.283 256.05 191.557V191.135H252.587V189.781H261.112V191.135H257.72V191.574ZM264.593 192.787H266.878V194.193H264.593V198.236H262.923V188.744H264.593V192.787ZM264.593 204.494H262.923V200.363H254.187V199.01H264.593V204.494ZM282.316 198.307H267.955V196.971H282.316V198.307ZM280.699 204.16H269.765V199.59H271.453V202.807H280.699V204.16ZM275.126 189.271C276.257 189.266 277.245 189.389 278.088 189.641C278.938 189.893 279.594 190.256 280.057 190.73C280.52 191.205 280.751 191.768 280.751 192.418C280.751 193.074 280.52 193.643 280.057 194.123C279.6 194.598 278.947 194.964 278.097 195.222C277.247 195.479 276.257 195.611 275.126 195.617C273.99 195.611 272.997 195.479 272.147 195.222C271.303 194.964 270.65 194.598 270.187 194.123C269.73 193.643 269.501 193.074 269.501 192.418C269.501 191.768 269.73 191.205 270.187 190.73C270.65 190.256 271.303 189.893 272.147 189.641C272.997 189.389 273.99 189.266 275.126 189.271ZM275.126 190.607C274.33 190.607 273.635 190.681 273.043 190.827C272.457 190.974 272.006 191.185 271.69 191.46C271.373 191.729 271.218 192.049 271.224 192.418C271.218 192.799 271.371 193.127 271.681 193.402C271.997 193.678 272.449 193.889 273.035 194.035C273.626 194.176 274.324 194.246 275.126 194.246C275.929 194.246 276.623 194.176 277.209 194.035C277.795 193.889 278.244 193.678 278.554 193.402C278.871 193.127 279.029 192.799 279.029 192.418C279.029 192.049 278.871 191.729 278.554 191.46C278.238 191.185 277.787 190.974 277.201 190.827C276.615 190.681 275.923 190.607 275.126 190.607ZM291.693 199.854H299.094V198.184H300.764V204.301H290.041V198.184H291.693V199.854ZM299.094 202.965V201.154H291.693V202.965H299.094ZM302.627 197.199H288.266V195.811H302.627V197.199ZM296.299 189.588C296.299 190.18 296.548 190.757 297.046 191.319C297.55 191.876 298.224 192.354 299.067 192.752C299.917 193.145 300.84 193.402 301.836 193.525L301.238 194.844C299.949 194.662 298.786 194.284 297.749 193.71C296.718 193.136 295.95 192.436 295.446 191.609C294.942 192.441 294.172 193.145 293.135 193.719C292.104 194.287 290.949 194.662 289.672 194.844L289.039 193.525C290.047 193.396 290.976 193.139 291.825 192.752C292.675 192.365 293.349 191.894 293.847 191.337C294.345 190.78 294.594 190.197 294.594 189.588V188.92H296.299V189.588ZM312.774 190.818V191.029C312.762 191.82 312.733 192.55 312.686 193.218C312.639 193.886 312.534 194.639 312.37 195.477L310.717 195.318C310.87 194.533 310.972 193.83 311.025 193.209C311.083 192.582 311.119 191.949 311.13 191.311H304.829V189.939H312.774V190.818ZM308.748 196.733C310.664 196.663 312.334 196.525 313.758 196.32L313.864 197.533C312.411 197.791 310.887 197.961 309.293 198.043C307.7 198.125 305.948 198.172 304.038 198.184L303.879 196.83H304.073L307.096 196.786V193.473H308.748V196.733ZM316.465 193.754H318.627V195.16H316.465V200.574H314.76V188.744H316.465V193.754ZM316.975 204.16H306.27V199.502H307.94V202.807H316.975V204.16Z" fill="#666666"/>
</svg>
