<svg width="53" height="14" viewBox="0 0 53 14" fill="none" xmlns="http://www.w3.org/2000/svg">
<path d="M5.24214 13.18C4.22214 13.18 3.34614 13.006 2.61414 12.658C1.89414 12.31 1.24014 11.788 0.652141 11.092L2.27214 9.472C2.64414 9.964 3.07614 10.348 3.56814 10.624C4.06014 10.888 4.66014 11.02 5.36814 11.02C6.00414 11.02 6.50814 10.894 6.88014 10.642C7.26414 10.39 7.45614 10.042 7.45614 9.598C7.45614 9.214 7.34814 8.902 7.13214 8.662C6.91614 8.422 6.62814 8.218 6.26814 8.05C5.92014 7.882 5.53014 7.732 5.09814 7.6C4.67814 7.456 4.25214 7.294 3.82014 7.114C3.40014 6.934 3.01014 6.712 2.65014 6.448C2.30214 6.172 2.02014 5.824 1.80414 5.404C1.58814 4.972 1.48014 4.432 1.48014 3.784C1.48014 3.016 1.66614 2.362 2.03814 1.822C2.41014 1.282 2.92014 0.868 3.56814 0.579999C4.21614 0.291999 4.94814 0.147999 5.76414 0.147999C6.62814 0.147999 7.40814 0.309999 8.10414 0.633999C8.80014 0.957999 9.37014 1.378 9.81414 1.894L8.19414 3.514C7.82214 3.106 7.43814 2.806 7.04214 2.614C6.65814 2.422 6.22014 2.326 5.72814 2.326C5.16414 2.326 4.72014 2.434 4.39614 2.65C4.07214 2.866 3.91014 3.178 3.91014 3.586C3.91014 3.934 4.01814 4.216 4.23414 4.432C4.45014 4.648 4.73214 4.834 5.08014 4.99C5.44014 5.146 5.83014 5.296 6.25014 5.44C6.68214 5.584 7.10814 5.746 7.52814 5.926C7.96014 6.106 8.35014 6.34 8.69814 6.628C9.05814 6.916 9.34614 7.288 9.56214 7.744C9.77814 8.188 9.88614 8.74 9.88614 9.4C9.88614 10.576 9.47214 11.5 8.64414 12.172C7.81614 12.844 6.68214 13.18 5.24214 13.18ZM14.5919 13.18C13.7999 13.18 13.0859 12.982 12.4499 12.586C11.8139 12.19 11.3159 11.65 10.9559 10.966C10.5959 10.282 10.4159 9.514 10.4159 8.662C10.4159 7.798 10.5959 7.024 10.9559 6.34C11.3159 5.656 11.8139 5.116 12.4499 4.72C13.0859 4.324 13.7999 4.126 14.5919 4.126C15.2159 4.126 15.7739 4.252 16.2659 4.504C16.7579 4.756 17.1479 5.11 17.4359 5.566C17.7359 6.01 17.8979 6.514 17.9219 7.078V10.21C17.8979 10.786 17.7359 11.296 17.4359 11.74C17.1479 12.184 16.7579 12.538 16.2659 12.802C15.7739 13.054 15.2159 13.18 14.5919 13.18ZM15.0239 11.002C15.6839 11.002 16.2179 10.786 16.6259 10.354C17.0339 9.91 17.2379 9.34 17.2379 8.644C17.2379 8.188 17.1419 7.786 16.9499 7.438C16.7699 7.078 16.5119 6.802 16.1759 6.61C15.8519 6.406 15.4679 6.304 15.0239 6.304C14.5919 6.304 14.2079 6.406 13.8719 6.61C13.5479 6.802 13.2899 7.078 13.0979 7.438C12.9179 7.786 12.8279 8.188 12.8279 8.644C12.8279 9.112 12.9179 9.526 13.0979 9.886C13.2899 10.234 13.5479 10.51 13.8719 10.714C14.2079 10.906 14.5919 11.002 15.0239 11.002ZM17.1119 13V10.66L17.4899 8.536L17.1119 6.448V4.306H19.4519V13H17.1119ZM23.8239 13L19.9899 4.306H22.5819L25.3359 11.47H24.0579L26.8299 4.306H29.3319L25.5159 13H23.8239ZM33.7741 13.18C32.8621 13.18 32.0521 12.988 31.3441 12.604C30.6361 12.208 30.0721 11.668 29.6521 10.984C29.2441 10.3 29.0401 9.52 29.0401 8.644C29.0401 7.78 29.2381 7.012 29.6341 6.34C30.0421 5.656 30.5941 5.116 31.2901 4.72C31.9861 4.312 32.7601 4.108 33.6121 4.108C34.4521 4.108 35.1901 4.3 35.8261 4.684C36.4741 5.056 36.9781 5.572 37.3381 6.232C37.7101 6.88 37.8961 7.618 37.8961 8.446C37.8961 8.602 37.8841 8.764 37.8601 8.932C37.8481 9.088 37.8181 9.268 37.7701 9.472L30.4621 9.49V7.726L36.6721 7.708L35.7181 8.446C35.6941 7.93 35.5981 7.498 35.4301 7.15C35.2741 6.802 35.0401 6.538 34.7281 6.358C34.4281 6.166 34.0561 6.07 33.6121 6.07C33.1441 6.07 32.7361 6.178 32.3881 6.394C32.0401 6.598 31.7701 6.892 31.5781 7.276C31.3981 7.648 31.3081 8.092 31.3081 8.608C31.3081 9.136 31.4041 9.598 31.5961 9.994C31.8001 10.378 32.0881 10.678 32.4601 10.894C32.8321 11.098 33.2641 11.2 33.7561 11.2C34.2001 11.2 34.6021 11.128 34.9621 10.984C35.3221 10.828 35.6341 10.6 35.8981 10.3L37.2841 11.686C36.8641 12.178 36.3481 12.55 35.7361 12.802C35.1361 13.054 34.4821 13.18 33.7741 13.18Z" fill="#212529"/>
<path d="M39.3544 13V0.616H40.6684V13H39.3544ZM46.3748 13V0.957999H47.7068V13H46.3748ZM42.0188 1.822V0.616H52.0628V1.822H42.0188Z" fill="#2F80ED"/>
</svg>
