<svg width="13" height="13" viewBox="0 0 13 13" fill="none" xmlns="http://www.w3.org/2000/svg">
<path d="M11.2038 2.77099L9.70379 1.27099C9.66896 1.23613 9.6276 1.20847 9.58208 1.1896C9.53655 1.17072 9.48776 1.16101 9.43848 1.16101C9.3892 1.16101 9.3404 1.17072 9.29487 1.1896C9.24935 1.20847 9.20799 1.23613 9.17316 1.27099L4.67316 5.77099C4.63835 5.80584 4.61075 5.84721 4.59193 5.89274C4.5731 5.93826 4.56344 5.98705 4.56348 6.03631V7.53631C4.56348 7.63576 4.60299 7.73114 4.67331 7.80147C4.74364 7.8718 4.83902 7.91131 4.93848 7.91131H6.43848C6.48774 7.91134 6.53652 7.90168 6.58205 7.88286C6.62757 7.86404 6.66894 7.83643 6.70379 7.80162L11.2038 3.30162C11.2387 3.26679 11.2663 3.22543 11.2852 3.17991C11.3041 3.13438 11.3138 3.08559 11.3138 3.03631C11.3138 2.98702 11.3041 2.93823 11.2852 2.8927C11.2663 2.84718 11.2387 2.80582 11.2038 2.77099ZM6.28332 7.16131H5.31348V6.19146L8.31348 3.19146L9.28332 4.16131L6.28332 7.16131ZM9.81348 3.63115L8.84363 2.66131L9.43848 2.06646L10.4083 3.03631L9.81348 3.63115ZM10.9385 6.03631V9.78631C10.9385 9.98522 10.8595 10.176 10.7188 10.3166C10.5782 10.4573 10.3874 10.5363 10.1885 10.5363H2.68848C2.48956 10.5363 2.2988 10.4573 2.15815 10.3166C2.01749 10.176 1.93848 9.98522 1.93848 9.78631V2.28631C1.93848 2.08739 2.01749 1.89663 2.15815 1.75598C2.2988 1.61532 2.48956 1.53631 2.68848 1.53631H6.43848C6.53793 1.53631 6.63332 1.57581 6.70364 1.64614C6.77397 1.71647 6.81348 1.81185 6.81348 1.91131C6.81348 2.01076 6.77397 2.10614 6.70364 2.17647C6.63332 2.2468 6.53793 2.28631 6.43848 2.28631H2.68848V9.78631H10.1885V6.03631C10.1885 5.93685 10.228 5.84147 10.2983 5.77114C10.3686 5.70081 10.464 5.66131 10.5635 5.66131C10.6629 5.66131 10.7583 5.70081 10.8286 5.77114C10.899 5.84147 10.9385 5.93685 10.9385 6.03631Z" fill="#777777"/>
</svg>
